<svg xmlns="http://www.w3.org/2000/svg" version="1.1" xmlns:xlink="http://www.w3.org/1999/xlink" xmlns:svgjs="http://svgjs.dev/svgjs" width="1440" height="250" preserveAspectRatio="none" viewBox="0 0 1440 250"><g mask="url(&quot;#SvgjsMask1021&quot;)" fill="none"><path d="M31 250L281 0L609.5 0L359.5 250z" fill="url(&quot;#SvgjsLinearGradient1022&quot;)"></path><path d="M280.6 250L530.6 0L769.1 0L519.1 250z" fill="url(&quot;#SvgjsLinearGradient1022&quot;)"></path><path d="M511.20000000000005 250L761.2 0L939.7 0L689.7 250z" fill="url(&quot;#SvgjsLinearGradient1022&quot;)"></path><path d="M735.8000000000001 250L985.8000000000001 0L1275.3000000000002 0L1025.3000000000002 250z" fill="url(&quot;#SvgjsLinearGradient1022&quot;)"></path><path d="M1394 250L1144 0L1058.5 0L1308.5 250z" fill="url(&quot;#SvgjsLinearGradient1023&quot;)"></path><path d="M1170.4 250L920.4000000000001 0L573.9000000000001 0L823.9000000000001 250z" fill="url(&quot;#SvgjsLinearGradient1023&quot;)"></path><path d="M946.8 250L696.8 0L582.8 0L832.8 250z" fill="url(&quot;#SvgjsLinearGradient1023&quot;)"></path><path d="M689.1999999999999 250L439.19999999999993 0L176.69999999999993 0L426.69999999999993 250z" fill="url(&quot;#SvgjsLinearGradient1023&quot;)"></path><path d="M1221.4903443615221 250L1440 31.49034436152212L1440 250z" fill="url(&quot;#SvgjsLinearGradient1022&quot;)"></path><path d="M0 250L218.50965563847788 250L 0 31.49034436152212z" fill="url(&quot;#SvgjsLinearGradient1023&quot;)"></path></g><defs><mask id="SvgjsMask1021"><rect width="1440" height="250" fill="#ffffff"></rect></mask><linearGradient x1="0%" y1="100%" x2="100%" y2="0%" id="SvgjsLinearGradient1022"><stop stop-color="rgba(93, 75, 99, 0.38)" offset="0"></stop><stop stop-opacity="0" stop-color="rgba(93, 75, 99, 0.38)" offset="0.66"></stop></linearGradient><linearGradient x1="100%" y1="100%" x2="0%" y2="0%" id="SvgjsLinearGradient1023"><stop stop-color="rgba(93, 75, 99, 0.38)" offset="0"></stop><stop stop-opacity="0" stop-color="rgba(93, 75, 99, 0.38)" offset="0.66"></stop></linearGradient></defs></svg>