<svg xmlns="http://www.w3.org/2000/svg" version="1.1" xmlns:xlink="http://www.w3.org/1999/xlink" xmlns:svgjs="http://svgjs.dev/svgjs" width="560" height="740" preserveAspectRatio="none" viewBox="0 0 560 740"><g mask="url(&quot;#SvgjsMask1006&quot;)" fill="none"><path d="M423.62-101.58C347.22-7.12 456.71 278.14 278.91 362.32 101.11 446.5 75.96 546.21-10.5 554.72" stroke="rgba(246, 229, 228, 0.77)" stroke-width="2"></path><path d="M240.68-19.13C176.29 148.72 263.35 633.13 131.96 691.7 0.58 750.27-7.97 476.18-85.47 454.9" stroke="rgba(246, 229, 228, 0.77)" stroke-width="2"></path><path d="M444.36-96.88C364.36-81.91 382.31 60.24 201.44 119.87 20.57 179.5 58.32 442.08-41.48 489.87" stroke="rgba(246, 229, 228, 0.77)" stroke-width="2"></path><path d="M431.08-8.66C312.13 75.23 374.8 430.83 171.45 512.47-31.89 594.11-9 688.33-88.17 697.47" stroke="rgba(246, 229, 228, 0.77)" stroke-width="2"></path><path d="M294.67-46.43C210.26 12.48 212.08 317.12 109.9 321.51 7.72 325.9-10.22 145.45-74.87 129.11" stroke="rgba(246, 229, 228, 0.77)" stroke-width="2"></path></g><defs><mask id="SvgjsMask1006"><rect width="560" height="740" fill="#ffffff"></rect></mask></defs></svg>