<svg width="144" height="140" viewBox="0 0 144 140" fill="none" xmlns="http://www.w3.org/2000/svg">
<g clip-path="url(#clip0_2314_16)">
<mask id="mask0_2314_16" style="mask-type:luminance" maskUnits="userSpaceOnUse" x="0" y="0" width="144" height="140">
<path d="M144 0H0V140H144V0Z" fill="white"/>
</mask>
<g mask="url(#mask0_2314_16)">
<path d="M115.412 35H129C130.657 35 132 36.3058 132 37.9167V113.978C132 116.338 129.14 117.906 126.921 116.947C122.15 114.886 114.189 112.369 103.765 112.369C86.1173 112.369 72 122.5 72 122.5C72 122.5 57.8824 112.369 40.2352 112.369C29.8108 112.369 21.8494 114.886 17.0788 116.947C14.8601 117.906 12 116.338 12 113.978V37.9167C12 36.3058 13.3432 35 15 35H28.5882" fill="#D74D63"/>
<path d="M115.412 35H129C130.657 35 132 36.3058 132 37.9167V113.978C132 116.338 129.14 117.906 126.921 116.947C122.15 114.886 114.189 112.369 103.765 112.369C86.1173 112.369 72 122.5 72 122.5C72 122.5 57.8824 112.369 40.2352 112.369C29.8108 112.369 21.8494 114.886 17.0788 116.947C14.8601 117.906 12 116.338 12 113.978V37.9167C12 36.3058 13.3432 35 15 35H28.5882" stroke="#5D4B63" stroke-width="6" stroke-linejoin="round"/>
<path d="M72 40.3031C65.3995 32.1354 55.2245 23.9677 30.007 23.3684C28.3508 23.3291 27 24.6371 27 26.248C27 38.1974 27 83.4364 27 96.8159C27 98.4263 28.3508 99.6916 30.0068 99.7442C55.2242 100.546 65.3995 111.416 72 119.583M72 40.3031C78.6005 32.1354 88.7753 23.9677 113.993 23.3684C115.649 23.3291 117 24.6077 117 26.2186C117 39.576 117 83.4539 117 96.8118C117 98.4223 115.649 99.6916 113.993 99.7442C88.776 100.546 78.6005 111.416 72 119.583M72 40.3031V119.583Z" fill="#D74D63"/>
<path d="M72 40.3031C65.3995 32.1354 55.2245 23.9677 30.007 23.3684C28.3508 23.3291 27 24.6371 27 26.248C27 38.1974 27 83.4364 27 96.8159C27 98.4263 28.3508 99.6916 30.0068 99.7442C55.2242 100.546 65.3995 111.416 72 119.583M72 40.3031C78.6005 32.1354 88.7753 23.9677 113.993 23.3684C115.649 23.3291 117 24.6077 117 26.2186C117 39.576 117 83.4539 117 96.8118C117 98.4223 115.649 99.6916 113.993 99.7442C88.776 100.546 78.6005 111.416 72 119.583M72 40.3031V119.583" stroke="#5D4B63" stroke-width="6" stroke-linejoin="round"/>
</g>
</g>
<defs>
<clipPath id="clip0_2314_16">
<rect width="144" height="140" fill="white"/>
</clipPath>
</defs>
</svg>
