<svg width="500" height="182" viewBox="0 0 500 182" fill="none" xmlns="http://www.w3.org/2000/svg">
<g clip-path="url(#clip0_2312_15)">
<path d="M36 134.985C33.1581 131.543 28.7772 128.101 17.9197 127.848C17.2066 127.832 16.625 128.383 16.625 129.062C16.625 134.098 16.625 153.163 16.625 158.801C16.625 159.48 17.2066 160.013 17.9196 160.035C28.7771 160.373 33.1581 164.954 36 168.396M36 134.985C38.8419 131.543 43.2227 128.101 54.0802 127.848C54.7935 127.832 55.375 128.37 55.375 129.049C55.375 134.679 55.375 153.17 55.375 158.799C55.375 159.478 54.7935 160.013 54.0805 160.035C43.223 160.373 38.8419 164.954 36 168.396M36 134.985V168.396" stroke="#5D4B63" stroke-width="4" stroke-linejoin="round"/>
<path d="M54.6912 132.75H60.5417C61.2549 132.75 61.8333 133.3 61.8333 133.979V166.033C61.8333 167.028 60.6019 167.689 59.6465 167.285C57.5925 166.416 54.1647 165.355 49.6764 165.355C42.0783 165.355 36 169.625 36 169.625C36 169.625 29.9216 165.355 22.3235 165.355C17.8352 165.355 14.4074 166.416 12.3534 167.285C11.3981 167.689 10.1667 167.028 10.1667 166.033V133.979C10.1667 133.3 10.745 132.75 11.4583 132.75H17.3088" stroke="#5D4B63" stroke-width="4" stroke-linejoin="round"/>
</g>
<path d="M60.416 56.616V68.52L38.912 73.896L35.84 105H10.88L3.2 27.432H62.08L66.048 43.304L41.856 44.84L40.576 56.616H60.416ZM102.304 46.12L104.48 45.352L100.128 105H75.936L71.84 45.352C76.704 47.3147 81.8667 48.296 87.328 48.296C92.8747 48.296 97.8667 47.5707 102.304 46.12ZM88.096 42.664C83.8293 42.664 80.2453 41.384 77.344 38.824C74.4427 36.264 72.992 32.936 72.992 28.84C72.992 24.6587 74.4 21.3307 77.216 18.856C80.1173 16.296 83.7013 15.016 87.968 15.016C92.32 15.016 95.9467 16.296 98.848 18.856C101.749 21.416 103.2 24.744 103.2 28.84C103.2 32.936 101.749 36.264 98.848 38.824C95.9467 41.384 92.3627 42.664 88.096 42.664ZM151.639 25.64C156.588 25.64 161.922 26.536 167.639 28.328C173.442 30.12 178.178 32.3813 181.847 35.112L176.471 46.504C172.716 45.0533 168.578 44.328 164.055 44.328C151.426 44.328 145.111 51.6667 145.111 66.344C145.111 73.4267 146.818 78.9733 150.231 82.984C153.73 86.9093 157.911 88.872 162.775 88.872C167.724 88.872 172.332 87.848 176.599 85.8L182.359 96.808C173.74 103.123 163.458 106.28 151.511 106.28C139.564 106.28 129.794 102.781 122.199 95.784C114.69 88.7867 110.935 78.76 110.935 65.704C110.935 52.5627 114.647 42.6213 122.071 35.88C129.495 29.0533 139.351 25.64 151.639 25.64ZM258.889 27.432L261.449 51.752L240.841 47.656L235.081 105H210.121L204.361 47.656L183.625 51.752L186.185 27.432H258.889ZM295.804 46.12L297.98 45.352L293.628 105H269.436L265.34 45.352C270.204 47.3147 275.367 48.296 280.828 48.296C286.375 48.296 291.367 47.5707 295.804 46.12ZM281.596 42.664C277.329 42.664 273.745 41.384 270.844 38.824C267.943 36.264 266.492 32.936 266.492 28.84C266.492 24.6587 267.9 21.3307 270.716 18.856C273.617 16.296 277.201 15.016 281.468 15.016C285.82 15.016 289.447 16.296 292.348 18.856C295.249 21.416 296.7 24.744 296.7 28.84C296.7 32.936 295.249 36.264 292.348 38.824C289.447 41.384 285.863 42.664 281.596 42.664ZM304.435 66.728C304.435 53.3307 308.318 43.1333 316.083 36.136C323.934 29.1387 335.112 25.64 349.619 25.64C364.211 25.64 375.39 29.1387 383.155 36.136C391.006 43.1333 394.931 53.3307 394.931 66.728C394.931 80.1253 390.792 90.0667 382.515 96.552C374.323 103.037 363.358 106.28 349.619 106.28C335.966 106.28 325 103.037 316.723 96.552C308.531 90.0667 304.435 80.1253 304.435 66.728ZM360.883 66.216C360.883 48.9787 357.128 40.36 349.619 40.36C342.195 40.36 338.483 48.9787 338.483 66.216C338.483 83.4533 342.195 92.072 349.619 92.072C357.128 92.072 360.883 83.4533 360.883 66.216ZM444.86 27.432L467.516 72.616L463.932 27.432H493.5L487.1 105H449.596L428.092 62.76L423.868 105H407.1L400.7 27.432H444.86Z" fill="#D74D63"/>
<path d="M95.832 137.456C96.216 137.029 97.0693 136.475 98.392 135.792C99.7573 135.109 101.187 134.768 102.68 134.768C104.216 134.768 105.667 135.003 107.032 135.472C108.44 135.941 109.805 136.709 111.128 137.776C112.493 138.8 113.581 140.379 114.392 142.512C115.245 144.645 115.672 147.184 115.672 150.128C115.672 155.504 114.456 159.6 112.024 162.416C109.592 165.232 106.477 166.64 102.68 166.64C98.8827 166.64 95.8107 165.104 93.464 162.032C93.4213 161.947 93.3787 161.883 93.336 161.84L92.248 166H82.648L80.92 124.464H95.512L95 138.48C95.1707 138.224 95.448 137.883 95.832 137.456ZM98.648 143.344C95.832 143.344 94.424 145.904 94.424 151.024C94.424 152.773 94.744 154.352 95.384 155.76C96.0667 157.125 97.0267 157.808 98.264 157.808C99.5013 157.808 100.44 157.339 101.08 156.4C101.72 155.461 102.104 154.565 102.232 153.712C102.36 152.859 102.424 151.963 102.424 151.024C102.424 145.904 101.165 143.344 98.648 143.344ZM123.458 162.864C120.386 160.304 118.85 156.251 118.85 150.704C118.85 145.157 120.386 141.125 123.458 138.608C126.573 136.048 130.711 134.768 135.874 134.768C141.037 134.768 145.154 136.048 148.226 138.608C151.341 141.125 152.898 145.157 152.898 150.704C152.898 156.251 151.341 160.304 148.226 162.864C145.154 165.381 141.037 166.64 135.874 166.64C130.711 166.64 126.573 165.381 123.458 162.864ZM133.186 143.472C132.674 144.923 132.418 147.333 132.418 150.704C132.418 154.075 132.674 156.507 133.186 158C133.698 159.451 134.594 160.176 135.874 160.176C137.154 160.176 138.05 159.451 138.562 158C139.074 156.507 139.33 154.075 139.33 150.704C139.33 147.333 139.074 144.923 138.562 143.472C138.05 141.979 137.154 141.232 135.874 141.232C134.594 141.232 133.698 141.979 133.186 143.472ZM160.708 162.864C157.636 160.304 156.1 156.251 156.1 150.704C156.1 145.157 157.636 141.125 160.708 138.608C163.823 136.048 167.961 134.768 173.124 134.768C178.287 134.768 182.404 136.048 185.476 138.608C188.591 141.125 190.148 145.157 190.148 150.704C190.148 156.251 188.591 160.304 185.476 162.864C182.404 165.381 178.287 166.64 173.124 166.64C167.961 166.64 163.823 165.381 160.708 162.864ZM170.436 143.472C169.924 144.923 169.668 147.333 169.668 150.704C169.668 154.075 169.924 156.507 170.436 158C170.948 159.451 171.844 160.176 173.124 160.176C174.404 160.176 175.3 159.451 175.812 158C176.324 156.507 176.58 154.075 176.58 150.704C176.58 147.333 176.324 144.923 175.812 143.472C175.3 141.979 174.404 141.232 173.124 141.232C171.844 141.232 170.948 141.979 170.436 143.472ZM218.374 166C213.297 161.093 209.713 157.616 207.622 155.568L207.174 166H195.398L193.67 124.464H208.902L208.134 144.176L214.598 135.664H227.526L218.502 148.336L228.806 166H218.374ZM259.484 161.52C256.284 164.933 251.996 166.64 246.62 166.64C241.286 166.64 237.148 165.211 234.204 162.352C231.26 159.451 229.788 155.376 229.788 150.128C229.788 144.88 231.366 141.019 234.524 138.544C237.681 136.027 241.628 134.768 246.364 134.768C248.369 134.768 250.289 134.96 252.124 135.344C254.001 135.728 255.366 136.133 256.22 136.56L257.5 137.136L256.092 143.728C254.342 143.216 252.529 142.96 250.652 142.96C248.817 142.96 247.132 143.557 245.596 144.752C244.102 145.904 243.356 147.696 243.356 150.128C243.356 155.589 245.468 158.32 249.692 158.32C250.801 158.32 251.868 158.192 252.892 157.936C253.916 157.637 254.662 157.339 255.132 157.04L255.836 156.656L259.484 161.52ZM275.628 139.824C277.889 136.453 280.684 134.768 284.012 134.768C285.591 134.768 287.041 135.152 288.364 135.92L286.828 146.416C285.121 145.221 283.201 144.624 281.068 144.624C279.02 144.624 277.633 145.477 276.908 147.184C276.481 148.251 276.204 149.275 276.076 150.256L274.86 166H263.34L261.42 135.664H274.028L275.628 139.824ZM294.583 162.864C291.511 160.304 289.975 156.251 289.975 150.704C289.975 145.157 291.511 141.125 294.583 138.608C297.698 136.048 301.836 134.768 306.999 134.768C312.162 134.768 316.279 136.048 319.351 138.608C322.466 141.125 324.023 145.157 324.023 150.704C324.023 156.251 322.466 160.304 319.351 162.864C316.279 165.381 312.162 166.64 306.999 166.64C301.836 166.64 297.698 165.381 294.583 162.864ZM304.311 143.472C303.799 144.923 303.543 147.333 303.543 150.704C303.543 154.075 303.799 156.507 304.311 158C304.823 159.451 305.719 160.176 306.999 160.176C308.279 160.176 309.175 159.451 309.687 158C310.199 156.507 310.455 154.075 310.455 150.704C310.455 147.333 310.199 144.923 309.687 143.472C309.175 141.979 308.279 141.232 306.999 141.232C305.719 141.232 304.823 141.979 304.311 143.472ZM355.321 156.4C355.321 158.832 354.51 160.859 352.889 162.48C351.268 164.101 349.39 165.211 347.257 165.808C345.166 166.363 343.14 166.64 341.177 166.64C339.214 166.64 337.486 166.512 335.993 166.256C334.542 166 333.305 165.701 332.281 165.36C330.404 164.635 328.91 163.952 327.801 163.312L327.225 162.928L330.041 157.104C332.601 158.555 334.756 159.28 336.505 159.28C338.254 159.28 339.129 158.555 339.129 157.104C339.129 156.379 338.574 155.632 337.465 154.864C336.356 154.096 335.14 153.371 333.817 152.688C332.537 152.005 331.342 150.96 330.233 149.552C329.124 148.144 328.569 146.523 328.569 144.688C328.569 141.403 329.806 138.928 332.281 137.264C334.756 135.6 338.02 134.768 342.073 134.768C344.121 134.768 346.126 134.939 348.089 135.28C350.052 135.621 351.524 135.963 352.505 136.304L353.913 136.88L352.313 143.344C349.881 142.448 347.812 142 346.105 142C344.398 142 343.545 142.661 343.545 143.984C343.545 144.624 343.95 145.243 344.761 145.84C345.572 146.395 346.553 146.949 347.705 147.504C348.857 148.059 350.009 148.699 351.161 149.424C352.313 150.107 353.294 151.067 354.105 152.304C354.916 153.499 355.321 154.864 355.321 156.4ZM386.634 156.4C386.634 158.832 385.823 160.859 384.202 162.48C382.58 164.101 380.703 165.211 378.57 165.808C376.479 166.363 374.452 166.64 372.49 166.64C370.527 166.64 368.799 166.512 367.306 166.256C365.855 166 364.618 165.701 363.594 165.36C361.716 164.635 360.223 163.952 359.114 163.312L358.538 162.928L361.354 157.104C363.914 158.555 366.068 159.28 367.818 159.28C369.567 159.28 370.442 158.555 370.442 157.104C370.442 156.379 369.887 155.632 368.778 154.864C367.668 154.096 366.452 153.371 365.13 152.688C363.85 152.005 362.655 150.96 361.546 149.552C360.436 148.144 359.882 146.523 359.882 144.688C359.882 141.403 361.119 138.928 363.594 137.264C366.068 135.6 369.332 134.768 373.385 134.768C375.434 134.768 377.439 134.939 379.402 135.28C381.364 135.621 382.836 135.963 383.818 136.304L385.226 136.88L383.626 143.344C381.194 142.448 379.124 142 377.418 142C375.711 142 374.858 142.661 374.858 143.984C374.858 144.624 375.263 145.243 376.074 145.84C376.884 146.395 377.866 146.949 379.018 147.504C380.17 148.059 381.322 148.699 382.474 149.424C383.626 150.107 384.607 151.067 385.418 152.304C386.228 153.499 386.634 154.864 386.634 156.4ZM405.402 136.56L406.49 136.176L404.314 166H392.218L390.17 136.176C392.602 137.157 395.183 137.648 397.914 137.648C400.687 137.648 403.183 137.285 405.402 136.56ZM398.298 134.832C396.165 134.832 394.373 134.192 392.922 132.912C391.471 131.632 390.746 129.968 390.746 127.92C390.746 125.829 391.45 124.165 392.858 122.928C394.309 121.648 396.101 121.008 398.234 121.008C400.41 121.008 402.223 121.648 403.674 122.928C405.125 124.208 405.85 125.872 405.85 127.92C405.85 129.968 405.125 131.632 403.674 132.912C402.223 134.192 400.431 134.832 398.298 134.832ZM434.55 134.768C437.536 134.768 440.096 136.027 442.229 138.544C444.406 141.061 445.494 144.347 445.494 148.4C445.494 152.411 445.003 158.277 444.022 166H432.822L431.542 151.664C431.115 147.099 429.878 144.816 427.83 144.816C425.398 144.816 424.096 147.12 423.926 151.728L423.478 166H411.702L410.358 135.664H424.822L424.566 141.104C424.779 140.677 425.27 140.016 426.038 139.12C426.806 138.224 427.552 137.499 428.278 136.944C430.155 135.493 432.246 134.768 434.55 134.768ZM467.662 177.84C465.571 177.84 463.523 177.52 461.518 176.88C459.512 176.283 458.04 175.685 457.102 175.088L455.694 174.128L458.51 168.368C460.344 169.264 462.051 169.712 463.63 169.712C466.531 169.712 468.664 168.795 470.03 166.96C471.395 165.125 472.078 163.013 472.078 160.624C472.078 160.197 472.056 159.771 472.014 159.344C470.008 163.355 466.723 165.36 462.158 165.36C458.147 165.36 454.947 164.144 452.558 161.712C450.211 159.28 449.038 155.419 449.038 150.128C449.038 147.184 449.443 144.645 450.254 142.512C451.107 140.379 452.216 138.779 453.582 137.712C456.099 135.749 458.894 134.768 461.966 134.768C464.099 134.768 465.912 135.28 467.406 136.304C468.643 137.2 469.688 138.181 470.542 139.248L470.158 135.664H485.006L483.918 160.56C483.363 172.08 477.944 177.84 467.662 177.84ZM466.062 143.408C463.544 143.408 462.286 145.755 462.286 150.448C462.286 151.301 462.35 152.133 462.478 152.944C462.648 153.755 463.054 154.565 463.694 155.376C464.376 156.187 465.336 156.592 466.574 156.592C467.811 156.592 468.728 155.995 469.326 154.8C469.966 153.605 470.286 152.155 470.286 150.448C470.286 145.755 468.878 143.408 466.062 143.408Z" fill="#5D4B63"/>
<defs>
<clipPath id="clip0_2312_15">
<rect width="62" height="59" fill="white" transform="translate(5 118)"/>
</clipPath>
</defs>
</svg>
