<svg width="355" height="875" viewBox="0 0 355 875" fill="none" xmlns="http://www.w3.org/2000/svg">
<path d="M37.1561 18.0734C37.1561 28.0714 28.8325 36.1468 18.578 36.1468C8.32364 36.1468 8.70322e-07 28.0287 0 18.0734C-8.70322e-07 8.11806 8.32364 8.96469e-07 18.578 0C28.8325 -8.96469e-07 37.1561 8.11805 37.1561 18.0734Z" fill="#f6e5e4"/>
<path d="M18.5776 58.3222C27.8881 58.3222 35.4824 65.6712 35.4824 74.772C35.4824 83.8728 27.931 91.2218 18.5776 91.2218C9.22421 91.2218 1.67287 83.8728 1.67287 74.772C1.67286 65.6712 9.22421 58.3222 18.5776 58.3222Z" fill="#f6e5e4"/>
<path d="M18.5781 116.644C26.9875 116.644 33.8095 123.266 33.8095 131.47C33.8095 139.674 26.9875 146.296 18.5781 146.296C10.1686 146.296 3.34663 139.674 3.34663 131.47C3.34663 123.266 10.1686 116.644 18.5781 116.644Z" fill="#f6e5e4"/>
<path d="M18.5785 175.009C26.0441 175.009 32.1367 180.905 32.1367 188.212C32.1367 195.518 26.087 201.414 18.5785 201.414C11.0701 201.414 5.02041 195.518 5.02041 188.212C5.02041 180.905 11.0701 175.009 18.5785 175.009Z" fill="#f6e5e4"/>
<path d="M18.5781 233.331C25.1426 233.331 30.4629 238.5 30.4629 244.909C30.4629 251.318 25.1426 256.488 18.5781 256.488C12.0135 256.488 6.69326 251.318 6.69326 244.909C6.69326 238.5 12.0135 233.331 18.5781 233.331Z" fill="#f6e5e4"/>
<path d="M18.5784 291.652C24.199 291.652 28.747 296.096 28.747 301.565C28.747 307.034 24.199 311.478 18.5784 311.478C12.9578 311.478 8.40983 307.034 8.40983 301.565C8.40983 296.096 12.9578 291.652 18.5784 291.652Z" fill="#f6e5e4"/>
<path d="M18.5779 350.017C13.8861 350.017 10.0826 353.728 10.0826 358.306C10.0826 362.884 13.8861 366.595 18.5779 366.595C23.2697 366.595 27.0732 362.884 27.0732 358.306C27.0732 353.728 23.2697 350.017 18.5779 350.017Z" fill="#f6e5e4"/>
<path d="M18.5784 408.339C14.8107 408.339 11.7564 411.323 11.7564 415.005C11.7564 418.686 14.8107 421.67 18.5784 421.67C22.346 421.67 25.4003 418.686 25.4003 415.005C25.4003 411.323 22.346 408.339 18.5784 408.339Z" fill="#f6e5e4"/>
<path d="M18.5778 466.662C15.7343 466.662 13.4292 468.919 13.4292 471.703C13.4292 474.488 15.7343 476.745 18.5778 476.745C21.4214 476.745 23.7265 474.488 23.7265 471.703C23.7265 468.919 21.4214 466.662 18.5778 466.662Z" fill="#f6e5e4"/>
<path d="M18.5781 524.983C20.5088 524.983 22.0535 526.521 22.0535 528.401C22.0535 530.281 20.5088 531.819 18.5781 531.819C16.6473 531.819 15.1028 530.281 15.1028 528.401C15.1028 526.521 16.6473 524.983 18.5781 524.983Z" fill="#f6e5e4"/>
<path d="M18.5778 583.348C19.5646 583.348 20.3798 584.16 20.3798 585.1C20.3798 586.04 19.5646 586.852 18.5778 586.852C17.591 586.852 16.7758 586.04 16.7758 585.1C16.7758 584.16 17.591 583.348 18.5778 583.348Z" fill="#f6e5e4"/>
<path d="M18.5785 641.67C18.5785 641.67 18.7068 641.713 18.7068 641.798C18.7068 641.883 18.664 641.926 18.5785 641.926C18.4929 641.926 18.4501 641.883 18.4501 641.798C18.4501 641.713 18.4929 641.67 18.5785 641.67Z" fill="#f6e5e4"/>
<path d="M18.5784 699.992C17.7203 699.992 17.0338 699.309 17.0338 698.497C17.0338 697.685 17.7203 697.001 18.5784 697.001C19.4365 697.001 20.123 697.685 20.123 698.497C20.123 699.309 19.4365 699.992 18.5784 699.992Z" fill="#f6e5e4"/>
<path d="M18.5781 758.313C16.819 758.313 15.3602 756.903 15.3602 755.194C15.3602 753.485 16.819 752.075 18.5781 752.075C20.3372 752.075 21.796 753.485 21.796 755.194C21.796 756.903 20.3372 758.313 18.5781 758.313Z" fill="#f6e5e4"/>
<path d="M18.5784 816.679C15.8754 816.679 13.6872 814.542 13.6872 811.936C13.6872 809.33 15.8754 807.193 18.5784 807.193C21.2815 807.193 23.4697 809.33 23.4697 811.936C23.4697 814.542 21.2815 816.679 18.5784 816.679Z" fill="#f6e5e4"/>
<path d="M25.1427 868.591C25.1427 872.137 22.2251 875 18.5781 875C14.9312 875 12.0136 872.137 12.0136 868.591C12.0136 865.045 14.9312 862.182 18.5781 862.182C22.2251 862.182 25.1427 865.045 25.1427 868.591Z" fill="#f6e5e4"/>
<path d="M100.699 18.0734C100.699 28.0714 92.3754 36.1468 82.121 36.1468C71.8666 36.1468 63.5429 28.0287 63.5429 18.0734C63.5429 8.11806 71.8666 2.97076e-06 82.121 2.07429e-06C92.3754 1.17782e-06 100.699 8.11806 100.699 18.0734Z" fill="#f6e5e4"/>
<path d="M82.1635 58.3222C91.474 58.3222 99.0683 65.6712 99.0683 74.772C99.0683 83.8728 91.5169 91.2218 82.1635 91.2218C72.8102 91.2218 65.2588 83.8728 65.2588 74.772C65.2588 65.6712 72.8101 58.3222 82.1635 58.3222Z" fill="#f6e5e4"/>
<path d="M82.1639 116.644C90.5734 116.644 97.3954 123.266 97.3954 131.47C97.3954 139.674 90.5734 146.296 82.1639 146.296C73.7544 146.296 66.9325 139.674 66.9325 131.47C66.9325 123.266 73.7544 116.644 82.1639 116.644Z" fill="#f6e5e4"/>
<path d="M82.1635 175.009C89.629 175.009 95.7216 180.905 95.7216 188.212C95.7216 195.518 89.6719 201.414 82.1635 201.414C74.655 201.414 68.6054 195.518 68.6054 188.212C68.6054 180.905 74.655 175.009 82.1635 175.009Z" fill="#f6e5e4"/>
<path d="M82.1639 233.331C88.7285 233.331 94.0488 238.5 94.0488 244.909C94.0488 251.318 88.7285 256.488 82.1639 256.488C75.5994 256.488 70.2791 251.318 70.2791 244.909C70.2791 238.5 75.5994 233.331 82.1639 233.331Z" fill="#f6e5e4"/>
<path d="M82.1643 291.652C87.785 291.652 92.3329 296.096 92.3329 301.565C92.3329 307.034 87.785 311.478 82.1644 311.478C76.5437 311.478 71.9958 307.034 71.9958 301.565C71.9958 296.096 76.5437 291.652 82.1643 291.652Z" fill="#f6e5e4"/>
<path d="M82.1638 349.975C86.8834 349.975 90.6591 353.692 90.6591 358.264C90.6591 362.836 86.8405 366.553 82.1638 366.553C77.4871 366.553 73.6685 362.836 73.6685 358.264C73.6685 353.692 77.4871 349.975 82.1638 349.975Z" fill="#f6e5e4"/>
<path d="M82.1643 408.339C85.94 408.339 88.9863 411.33 88.9863 415.005C88.9863 418.679 85.94 421.67 82.1643 421.67C78.3886 421.67 75.3423 418.679 75.3423 415.005C75.3423 411.33 78.3886 408.339 82.1643 408.339Z" fill="#f6e5e4"/>
<path d="M82.1638 466.661C84.9955 466.661 87.3124 468.925 87.3124 471.702C87.3124 474.48 84.9955 476.744 82.1638 476.744C79.332 476.744 77.0151 474.48 77.0151 471.702C77.0151 468.925 79.332 466.661 82.1638 466.661Z" fill="#f6e5e4"/>
<path d="M82.1642 524.983C84.095 524.983 85.6396 526.521 85.6396 528.401C85.6396 530.281 84.095 531.819 82.1642 531.819C80.2335 531.819 78.6889 530.281 78.6889 528.401C78.6889 526.521 80.2335 524.983 82.1642 524.983Z" fill="#f6e5e4"/>
<path d="M82.1637 583.348C83.1505 583.348 83.9658 584.117 83.9658 585.1C83.9658 586.083 83.1505 586.852 82.1637 586.852C81.1769 586.852 80.3617 586.04 80.3617 585.1C80.3617 584.16 81.1769 583.348 82.1637 583.348Z" fill="#f6e5e4"/>
<path d="M82.1643 641.67C82.1643 641.67 82.2927 641.713 82.2927 641.798C82.2927 641.883 82.2499 641.926 82.1643 641.926C82.0788 641.926 82.036 641.883 82.036 641.798C82.036 641.713 82.0788 641.67 82.1643 641.67Z" fill="#f6e5e4"/>
<path d="M82.1643 699.992C81.3062 699.992 80.6197 699.309 80.6197 698.497C80.6197 697.685 81.3062 697.001 82.1643 697.001C83.0224 697.001 83.7089 697.685 83.7089 698.497C83.7089 699.309 83.0224 699.992 82.1643 699.992Z" fill="#f6e5e4"/>
<path d="M82.164 758.313C80.4049 758.313 78.9461 756.903 78.9461 755.194C78.9461 753.485 80.4049 752.075 82.164 752.075C83.9231 752.075 85.3819 753.485 85.3819 755.194C85.3819 756.903 83.9231 758.313 82.164 758.313Z" fill="#f6e5e4"/>
<path d="M82.1644 816.679C79.4613 816.679 77.2731 814.542 77.2731 811.936C77.2731 809.33 79.4613 807.193 82.1644 807.193C84.8674 807.193 87.0556 809.33 87.0556 811.936C87.0556 814.542 84.8674 816.679 82.1644 816.679Z" fill="#f6e5e4"/>
<path d="M88.7285 868.591C88.7285 872.137 85.811 875 82.164 875C78.517 875 75.5994 872.137 75.5994 868.591C75.5994 865.045 78.517 862.182 82.164 862.182C85.811 862.182 88.7285 865.045 88.7285 868.591Z" fill="#f6e5e4"/>
<path d="M164.285 18.0734C164.285 28.0714 155.961 36.1468 145.707 36.1468C135.453 36.1468 127.129 28.0287 127.129 18.0734C127.129 8.07533 135.453 5.0413e-06 145.707 4.14483e-06C155.961 3.24836e-06 164.285 8.11806 164.285 18.0734Z" fill="#f6e5e4"/>
<path d="M145.707 58.3222C155.017 58.3222 162.611 65.6712 162.611 74.772C162.611 83.8728 155.06 91.2218 145.707 91.2218C136.353 91.2218 128.802 83.8728 128.802 74.772C128.802 65.6712 136.353 58.3222 145.707 58.3222Z" fill="#f6e5e4"/>
<path d="M145.707 116.644C154.116 116.644 160.938 123.266 160.938 131.47C160.938 139.674 154.116 146.296 145.707 146.296C137.297 146.296 130.475 139.674 130.475 131.47C130.475 123.266 137.297 116.644 145.707 116.644Z" fill="#f6e5e4"/>
<path d="M145.707 175.009C153.173 175.009 159.266 180.905 159.266 188.212C159.266 195.518 153.216 201.414 145.707 201.414C138.199 201.414 132.149 195.518 132.149 188.212C132.149 180.905 138.199 175.009 145.707 175.009Z" fill="#f6e5e4"/>
<path d="M145.707 233.331C152.271 233.331 157.592 238.5 157.592 244.909C157.592 251.318 152.271 256.488 145.707 256.488C139.142 256.488 133.822 251.318 133.822 244.909C133.822 238.543 139.142 233.331 145.707 233.331Z" fill="#f6e5e4"/>
<path d="M145.707 291.652C151.328 291.652 155.876 296.096 155.876 301.565C155.876 307.034 151.328 311.478 145.707 311.478C140.087 311.478 135.539 307.034 135.539 301.565C135.539 296.096 140.087 291.652 145.707 291.652Z" fill="#f6e5e4"/>
<path d="M145.707 349.975C150.426 349.975 154.202 353.692 154.202 358.264C154.202 362.836 150.383 366.553 145.707 366.553C141.03 366.553 137.212 362.836 137.212 358.264C137.212 353.692 141.03 349.975 145.707 349.975Z" fill="#f6e5e4"/>
<path d="M145.707 408.339C149.483 408.339 152.529 411.33 152.529 415.005C152.529 418.679 149.483 421.67 145.707 421.67C141.932 421.67 138.885 418.679 138.885 415.005C138.885 411.33 141.932 408.339 145.707 408.339Z" fill="#f6e5e4"/>
<path d="M145.707 466.661C148.539 466.661 150.855 468.925 150.855 471.702C150.855 474.48 148.539 476.744 145.707 476.744C142.875 476.744 140.558 474.48 140.558 471.702C140.558 468.925 142.875 466.661 145.707 466.661Z" fill="#f6e5e4"/>
<path d="M145.707 524.983C147.638 524.983 149.182 526.521 149.182 528.401C149.182 530.281 147.638 531.819 145.707 531.819C143.776 531.819 142.232 530.281 142.232 528.401C142.232 526.521 143.776 524.983 145.707 524.983Z" fill="#f6e5e4"/>
<path d="M145.707 583.348C146.694 583.348 147.509 584.117 147.509 585.1C147.509 586.083 146.694 586.852 145.707 586.852C144.72 586.852 143.905 586.04 143.905 585.1C143.905 584.117 144.72 583.348 145.707 583.348Z" fill="#f6e5e4"/>
<path d="M145.707 641.67C145.707 641.67 145.836 641.713 145.836 641.798C145.836 641.883 145.793 641.926 145.707 641.926C145.622 641.926 145.579 641.883 145.579 641.798C145.579 641.713 145.622 641.67 145.707 641.67Z" fill="#f6e5e4"/>
<path d="M145.707 699.992C144.849 699.992 144.163 699.309 144.163 698.497C144.163 697.685 144.849 697.001 145.707 697.001C146.565 697.001 147.252 697.685 147.252 698.497C147.252 699.309 146.565 699.992 145.707 699.992Z" fill="#f6e5e4"/>
<path d="M145.707 758.313C143.948 758.313 142.489 756.903 142.489 755.194C142.489 753.485 143.948 752.075 145.707 752.075C147.466 752.075 148.925 753.485 148.925 755.194C148.925 756.903 147.466 758.313 145.707 758.313Z" fill="#f6e5e4"/>
<path d="M145.707 816.679C143.004 816.679 140.816 814.542 140.816 811.936C140.816 809.33 143.004 807.193 145.707 807.193C148.41 807.193 150.599 809.33 150.599 811.936C150.599 814.585 148.41 816.679 145.707 816.679Z" fill="#f6e5e4"/>
<path d="M152.272 868.591C152.272 872.137 149.354 875 145.707 875C142.06 875 139.142 872.137 139.142 868.591C139.142 865.045 142.06 862.182 145.707 862.182C149.354 862.182 152.272 865.045 152.272 868.591Z" fill="#f6e5e4"/>
<path d="M227.871 18.0734C227.871 28.0714 219.547 36.1468 209.293 36.1468C199.038 36.1468 190.715 28.0287 190.715 18.0734C190.715 8.11806 199.038 7.11183e-06 209.293 6.21536e-06C219.547 5.31889e-06 227.871 8.11806 227.871 18.0734Z" fill="#f6e5e4"/>
<path d="M209.292 58.3222C218.603 58.3222 226.197 65.6712 226.197 74.772C226.197 83.8728 218.646 91.2218 209.292 91.2218C199.939 91.2218 192.388 83.8728 192.388 74.772C192.388 65.6712 199.939 58.3222 209.292 58.3222Z" fill="#f6e5e4"/>
<path d="M209.293 116.644C217.702 116.644 224.524 123.266 224.524 131.47C224.524 139.674 217.702 146.296 209.293 146.296C200.883 146.296 194.061 139.674 194.061 131.47C194.061 123.266 200.883 116.644 209.293 116.644Z" fill="#f6e5e4"/>
<path d="M209.293 175.009C216.759 175.009 222.852 180.905 222.852 188.212C222.852 195.518 216.802 201.414 209.293 201.414C201.785 201.414 195.735 195.518 195.735 188.212C195.735 180.905 201.785 175.009 209.293 175.009Z" fill="#f6e5e4"/>
<path d="M209.293 233.331C215.857 233.331 221.178 238.5 221.178 244.909C221.178 251.318 215.857 256.488 209.293 256.488C202.728 256.488 197.408 251.318 197.408 244.909C197.408 238.5 202.728 233.331 209.293 233.331Z" fill="#f6e5e4"/>
<path d="M209.293 291.652C214.914 291.652 219.462 296.096 219.462 301.565C219.462 307.034 214.914 311.478 209.293 311.478C203.673 311.478 199.125 307.034 199.125 301.565C199.125 296.096 203.673 291.652 209.293 291.652Z" fill="#f6e5e4"/>
<path d="M209.293 349.975C214.012 349.975 217.788 353.692 217.788 358.264C217.788 362.836 213.969 366.553 209.293 366.553C204.616 366.553 200.797 362.836 200.797 358.264C200.797 353.692 204.616 349.975 209.293 349.975Z" fill="#f6e5e4"/>
<path d="M209.293 408.339C213.069 408.339 216.115 411.33 216.115 415.005C216.115 418.679 213.069 421.67 209.293 421.67C205.518 421.67 202.471 418.679 202.471 415.005C202.471 411.33 205.518 408.339 209.293 408.339Z" fill="#f6e5e4"/>
<path d="M209.293 466.662C212.124 466.662 214.441 468.926 214.441 471.703C214.441 474.481 212.124 476.745 209.293 476.745C206.461 476.745 204.144 474.481 204.144 471.703C204.144 468.926 206.461 466.662 209.293 466.662Z" fill="#f6e5e4"/>
<path d="M209.293 524.983C211.224 524.983 212.768 526.521 212.768 528.401C212.768 530.281 211.224 531.819 209.293 531.819C207.362 531.819 205.818 530.281 205.818 528.401C205.818 526.521 207.362 524.983 209.293 524.983Z" fill="#f6e5e4"/>
<path d="M209.293 583.348C210.279 583.348 211.095 584.16 211.095 585.1C211.095 586.04 210.279 586.852 209.293 586.852C208.306 586.852 207.491 586.04 207.491 585.1C207.491 584.16 208.306 583.348 209.293 583.348Z" fill="#f6e5e4"/>
<path d="M209.293 641.67C209.293 641.67 209.422 641.713 209.422 641.798C209.422 641.883 209.379 641.926 209.293 641.926C209.208 641.926 209.165 641.883 209.165 641.798C209.165 641.713 209.208 641.67 209.293 641.67Z" fill="#f6e5e4"/>
<path d="M209.293 699.992C208.435 699.992 207.749 699.309 207.749 698.497C207.749 697.685 208.435 697.001 209.293 697.001C210.151 697.001 210.838 697.685 210.838 698.497C210.838 699.309 210.151 699.992 209.293 699.992Z" fill="#f6e5e4"/>
<path d="M209.293 758.313C207.534 758.313 206.075 756.903 206.075 755.194C206.075 753.485 207.534 752.075 209.293 752.075C211.052 752.075 212.511 753.485 212.511 755.194C212.511 756.903 211.052 758.313 209.293 758.313Z" fill="#f6e5e4"/>
<path d="M209.293 816.679C206.59 816.679 204.402 814.542 204.402 811.936C204.402 809.33 206.59 807.193 209.293 807.193C211.996 807.193 214.185 809.33 214.185 811.936C214.185 814.542 211.996 816.679 209.293 816.679Z" fill="#f6e5e4"/>
<path d="M215.857 868.591C215.857 872.137 212.94 875 209.293 875C205.646 875 202.728 872.137 202.728 868.591C202.728 865.045 205.646 862.182 209.293 862.182C212.94 862.182 215.857 865.045 215.857 868.591Z" fill="#f6e5e4"/>
<path d="M291.414 18.0734C291.414 28.0714 283.09 36.1468 272.836 36.1468C262.581 36.1468 254.258 28.0287 254.258 18.0734C254.258 8.11806 262.581 1.55673e-06 272.836 6.6026e-07C283.09 -2.36209e-07 291.414 8.11805 291.414 18.0734Z" fill="#f6e5e4"/>
<path d="M272.878 58.3222C282.189 58.3222 289.783 65.6712 289.783 74.772C289.783 83.8728 282.232 91.2218 272.878 91.2218C263.525 91.2218 255.974 83.8728 255.974 74.772C255.974 65.6712 263.525 58.3222 272.878 58.3222Z" fill="#f6e5e4"/>
<path d="M272.879 116.644C281.288 116.644 288.11 123.266 288.11 131.47C288.11 139.674 281.288 146.296 272.879 146.296C264.469 146.296 257.647 139.674 257.647 131.47C257.647 123.266 264.469 116.644 272.879 116.644Z" fill="#f6e5e4"/>
<path d="M272.878 175.009C280.344 175.009 286.436 180.905 286.436 188.212C286.436 195.518 280.387 201.414 272.878 201.414C265.37 201.414 259.32 195.518 259.32 188.212C259.32 180.905 265.37 175.009 272.878 175.009Z" fill="#f6e5e4"/>
<path d="M272.879 233.331C279.443 233.331 284.764 238.5 284.764 244.909C284.764 251.318 279.443 256.488 272.879 256.488C266.314 256.488 260.994 251.318 260.994 244.909C260.994 238.5 266.314 233.331 272.879 233.331Z" fill="#f6e5e4"/>
<path d="M272.879 291.652C278.5 291.652 283.048 296.096 283.048 301.565C283.048 307.034 278.5 311.478 272.879 311.478C267.259 311.478 262.711 307.034 262.711 301.565C262.711 296.096 267.259 291.652 272.879 291.652Z" fill="#f6e5e4"/>
<path d="M272.879 349.975C277.598 349.975 281.374 353.692 281.374 358.264C281.374 362.836 277.555 366.553 272.879 366.553C268.202 366.553 264.383 362.836 264.383 358.264C264.383 353.692 268.202 349.975 272.879 349.975Z" fill="#f6e5e4"/>
<path d="M272.879 408.339C276.655 408.339 279.701 411.33 279.701 415.005C279.701 418.679 276.655 421.67 272.879 421.67C269.103 421.67 266.057 418.679 266.057 415.005C266.057 411.33 269.103 408.339 272.879 408.339Z" fill="#f6e5e4"/>
<path d="M272.879 466.661C275.71 466.661 278.027 468.925 278.027 471.702C278.027 474.48 275.71 476.744 272.879 476.744C270.047 476.744 267.73 474.48 267.73 471.702C267.73 468.925 270.047 466.661 272.879 466.661Z" fill="#f6e5e4"/>
<path d="M272.879 524.983C274.81 524.983 276.354 526.521 276.354 528.401C276.354 530.281 274.81 531.819 272.879 531.819C270.948 531.819 269.404 530.281 269.404 528.401C269.404 526.521 270.948 524.983 272.879 524.983Z" fill="#f6e5e4"/>
<path d="M272.879 583.348C273.865 583.348 274.681 584.16 274.681 585.1C274.681 586.04 273.865 586.852 272.879 586.852C271.892 586.852 271.077 586.04 271.077 585.1C271.077 584.16 271.892 583.348 272.879 583.348Z" fill="#f6e5e4"/>
<path d="M272.879 641.67C272.879 641.67 273.008 641.713 273.008 641.798C273.008 641.883 272.965 641.926 272.879 641.926C272.794 641.926 272.751 641.883 272.751 641.798C272.751 641.713 272.794 641.67 272.879 641.67Z" fill="#f6e5e4"/>
<path d="M272.879 699.992C272.021 699.992 271.335 699.309 271.335 698.497C271.335 697.685 272.021 697.001 272.879 697.001C273.737 697.001 274.424 697.685 274.424 698.497C274.424 699.309 273.737 699.992 272.879 699.992Z" fill="#f6e5e4"/>
<path d="M272.879 758.313C271.12 758.313 269.661 756.903 269.661 755.194C269.661 753.485 271.12 752.075 272.879 752.075C274.638 752.075 276.097 753.485 276.097 755.194C276.097 756.903 274.638 758.313 272.879 758.313Z" fill="#f6e5e4"/>
<path d="M272.879 816.679C270.176 816.679 267.988 814.542 267.988 811.936C267.988 809.33 270.176 807.193 272.879 807.193C275.582 807.193 277.77 809.33 277.77 811.936C277.77 814.542 275.582 816.679 272.879 816.679Z" fill="#f6e5e4"/>
<path d="M279.443 868.591C279.443 872.137 276.526 875 272.879 875C269.232 875 266.314 872.137 266.314 868.591C266.314 865.045 269.232 862.182 272.879 862.182C276.526 862.182 279.443 865.045 279.443 868.591Z" fill="#f6e5e4"/>
<path d="M355 18.0734C355 28.0714 346.676 36.1468 336.422 36.1468C326.167 36.1468 317.844 28.0287 317.844 18.0734C317.844 8.11806 326.167 3.62726e-06 336.422 2.73079e-06C346.676 1.83433e-06 355 8.11806 355 18.0734Z" fill="#f6e5e4"/>
<path d="M336.421 58.3222C345.732 58.3222 353.326 65.6712 353.326 74.772C353.326 83.8728 345.775 91.2218 336.421 91.2218C327.068 91.2218 319.517 83.8728 319.517 74.772C319.517 65.6712 327.068 58.3222 336.421 58.3222Z" fill="#f6e5e4"/>
<path d="M336.422 116.644C344.831 116.644 351.653 123.266 351.653 131.47C351.653 139.674 344.831 146.296 336.422 146.296C328.012 146.296 321.19 139.674 321.19 131.47C321.19 123.266 328.012 116.644 336.422 116.644Z" fill="#f6e5e4"/>
<path d="M336.422 175.009C343.888 175.009 349.98 180.905 349.98 188.212C349.98 195.518 343.931 201.414 336.422 201.414C328.914 201.414 322.864 195.518 322.864 188.212C322.864 180.905 328.914 175.009 336.422 175.009Z" fill="#f6e5e4"/>
<path d="M336.422 233.331C342.986 233.331 348.307 238.5 348.307 244.909C348.307 251.318 342.986 256.488 336.422 256.488C329.857 256.488 324.537 251.318 324.537 244.909C324.537 238.5 329.857 233.331 336.422 233.331Z" fill="#f6e5e4"/>
<path d="M336.422 291.652C342.043 291.652 346.591 296.096 346.591 301.565C346.591 307.034 342.043 311.478 336.422 311.478C330.802 311.478 326.254 307.034 326.254 301.565C326.254 296.096 330.802 291.652 336.422 291.652Z" fill="#f6e5e4"/>
<path d="M336.422 349.975C341.141 349.975 344.917 353.692 344.917 358.264C344.917 362.836 341.098 366.553 336.422 366.553C331.745 366.553 327.926 362.836 327.926 358.264C327.926 353.692 331.745 349.975 336.422 349.975Z" fill="#f6e5e4"/>
<path d="M336.422 408.339C340.198 408.339 343.244 411.33 343.244 415.005C343.244 418.679 340.198 421.67 336.422 421.67C332.646 421.67 329.6 418.679 329.6 415.005C329.6 411.33 332.646 408.339 336.422 408.339Z" fill="#f6e5e4"/>
<path d="M336.422 466.661C339.253 466.661 341.57 468.925 341.57 471.702C341.57 474.48 339.253 476.744 336.422 476.744C333.59 476.744 331.273 474.48 331.273 471.702C331.273 468.925 333.59 466.661 336.422 466.661Z" fill="#f6e5e4"/>
<path d="M336.422 524.983C338.353 524.983 339.897 526.521 339.897 528.401C339.897 530.281 338.353 531.819 336.422 531.819C334.491 531.819 332.947 530.281 332.947 528.401C332.947 526.521 334.491 524.983 336.422 524.983Z" fill="#f6e5e4"/>
<path d="M336.422 583.348C337.408 583.348 338.224 584.16 338.224 585.1C338.224 586.04 337.408 586.852 336.422 586.852C335.435 586.852 334.62 586.04 334.62 585.1C334.62 584.16 335.435 583.348 336.422 583.348Z" fill="#f6e5e4"/>
<path d="M336.422 641.67C336.422 641.67 336.551 641.713 336.551 641.798C336.551 641.883 336.508 641.926 336.422 641.926C336.337 641.926 336.294 641.883 336.294 641.798C336.294 641.713 336.337 641.67 336.422 641.67Z" fill="#f6e5e4"/>
<path d="M336.422 699.992C335.564 699.992 334.878 699.309 334.878 698.497C334.878 697.685 335.564 697.001 336.422 697.001C337.28 697.001 337.967 697.685 337.967 698.497C337.967 699.309 337.28 699.992 336.422 699.992Z" fill="#f6e5e4"/>
<path d="M336.422 758.313C334.663 758.313 333.204 756.903 333.204 755.194C333.204 753.485 334.663 752.075 336.422 752.075C338.181 752.075 339.64 753.485 339.64 755.194C339.64 756.903 338.181 758.313 336.422 758.313Z" fill="#f6e5e4"/>
<path d="M336.422 816.679C333.719 816.679 331.531 814.542 331.531 811.936C331.531 809.33 333.719 807.193 336.422 807.193C339.125 807.193 341.313 809.33 341.313 811.936C341.313 814.542 339.125 816.679 336.422 816.679Z" fill="#f6e5e4"/>
<path d="M342.986 868.591C342.986 872.137 340.069 875 336.422 875C332.775 875 329.857 872.137 329.857 868.591C329.857 865.045 332.775 862.182 336.422 862.182C340.069 862.182 342.986 865.045 342.986 868.591Z" fill="#f6e5e4"/>
</svg>
