<svg xmlns="http://www.w3.org/2000/svg" version="1.1" xmlns:xlink="http://www.w3.org/1999/xlink" xmlns:svgjs="http://svgjs.dev/svgjs" width="1440" height="560" preserveAspectRatio="none" viewBox="0 0 1440 560"><g mask="url(&quot;#SvgjsMask1011&quot;)" fill="none"><path d="M1056.65-12.29C882.35 18.3 793.58 449.9 521.27 450.75 248.96 451.6 134.87 194.54-14.11 187.55" stroke="rgba(215, 77, 99, 0.28)" stroke-width="2"></path><path d="M1200.56-85.94C1029.7-76.3 902.39 233.2 595.36 233.95 288.33 234.7 144.03 122.42-9.84 121.95" stroke="rgba(215, 77, 99, 0.28)" stroke-width="2"></path><path d="M669.01-21.15C548.78 60.39 611.71 493.17 403.71 495.84 195.71 498.51 22.24 229.4-126.89 221.44" stroke="rgba(215, 77, 99, 0.28)" stroke-width="2"></path><path d="M749.27-22.23C636.62 20.47 682.44 359.64 457.22 361.09 231.99 362.54 25.44 189.31-126.89 187.49" stroke="rgba(215, 77, 99, 0.28)" stroke-width="2"></path><path d="M966.66-107.55C840.5-77.98 877.36 258.76 600.24 259.06 323.12 259.36 58.96 37.54-132.6 35.06" stroke="rgba(215, 77, 99, 0.28)" stroke-width="2"></path></g><defs><mask id="SvgjsMask1011"><rect width="1440" height="560" fill="#ffffff"></rect></mask></defs></svg>